<svg width="20" height="20" viewBox="0 0 20 20" fill="none" xmlns="http://www.w3.org/2000/svg">
<path d="M18.1713 8.36788H17.5001V8.33329H10.0001V11.6666H14.7096C14.023 13.6069 12.1763 15 10.0001 15C7.23884 15 5.00009 12.7612 5.00009 9.99996C5.00009 7.23871 7.23884 4.99996 10.0001 4.99996C11.2746 4.99996 12.4342 5.48079 13.3171 6.26621L15.6742 3.90913C14.1859 2.52204 12.1951 1.66663 10.0001 1.66663C5.39801 1.66663 1.66675 5.39788 1.66675 9.99996C1.66675 14.602 5.39801 18.3333 10.0001 18.3333C14.6022 18.3333 18.3334 14.602 18.3334 9.99996C18.3334 9.44121 18.2813 8.89538 18.1713 8.36788Z" fill="#FFC107"/>
<path d="M2.62744 6.12121L5.36536 8.12913C6.10619 6.29496 7.90036 4.99996 9.99994 4.99996C11.2744 4.99996 12.4341 5.48079 13.3169 6.26621L15.6741 3.90913C14.1858 2.52204 12.1949 1.66663 9.99994 1.66663C6.79911 1.66663 4.02327 3.47371 2.62744 6.12121Z" fill="#FF3D00"/>
<path d="M10.0001 18.3333C12.1526 18.3333 14.1084 17.5095 15.5876 16.1704L13.0084 13.9875C12.1431 14.6467 11.0864 15.0008 10.0001 15C7.83259 15 5.99092 13.6179 5.29842 11.6891L2.58342 13.783C3.96092 16.4816 6.76092 18.3333 10.0001 18.3333Z" fill="#4CAF50"/>
<path d="M18.1713 8.36796H17.5V8.33337H10V11.6667H14.7096C14.3809 12.5902 13.7889 13.3972 13.0067 13.988L13.0079 13.9871L15.5871 16.17C15.4046 16.3359 18.3333 14.1667 18.3333 10C18.3333 9.44129 18.2813 8.89546 18.1713 8.36796Z" fill="#1976D2"/>
</svg>
