<?xml version="1.0" encoding="UTF-8"?>
<svg version="1.1" xmlns="http://www.w3.org/2000/svg" width="42" height="45">
<path d="M0 0 C13.86 0 27.72 0 42 0 C42 14.85 42 29.7 42 45 C28.14 45 14.28 45 0 45 C0 30.15 0 15.3 0 0 Z " fill="#06983E" transform="translate(0,0)"/>
<path d="M0 0 C6.10688347 5.95029671 6.10688347 5.95029671 6.203125 11.140625 C6.22444661 12.84368821 6.23981664 14.54683377 6.25 16.25 C6.270625 17.09691406 6.29125 17.94382812 6.3125 18.81640625 C6.34462068 23.97980607 5.88784062 27.53759866 3 32 C-2.5878107 37.16872489 -7.14290984 37.20656402 -14.375 37.25 C-15.22578125 37.270625 -16.0765625 37.29125 -16.953125 37.3125 C-21.79260519 37.34265252 -25.08761627 37.18557727 -29 34 C-32.07542461 29.07932062 -32.212222 24.15725551 -32.25 18.5 C-32.270625 17.72785156 -32.29125 16.95570312 -32.3125 16.16015625 C-32.35201179 10.46058099 -32.35201179 10.46058099 -30.66699219 8.25585938 C-29 7 -29 7 -26 7 C-25.86464844 7.78503906 -25.72929687 8.57007813 -25.58984375 9.37890625 C-24.24719587 15.93134948 -22.72028313 20.28081858 -17.9140625 24.98828125 C-15.99358114 26.20867566 -15.99358114 26.20867566 -13.51171875 25.8984375 C-9.08225033 24.31402422 -6.50072645 20.87824526 -4 17 C-3.40869572 13.65934047 -3.40869572 13.65934047 -4 11 C-3.34 11 -2.68 11 -2 11 C-1.67 9.68 -1.34 8.36 -1 7 C-0.01 7 0.98 7 2 7 C1.42415568 4.61435923 0.77772405 2.33317216 0 0 Z " fill="#048F3A" transform="translate(35,7)"/>
<path d="M0 0 C13.86 0 27.72 0 42 0 C42 14.85 42 29.7 42 45 C28.14 45 14.28 45 0 45 C0 30.15 0 15.3 0 0 Z M3.75 9.5 C0.50101008 14.14141417 0.78478361 18.37321286 0.75 23.8125 C0.729375 24.60720703 0.70875 25.40191406 0.6875 26.22070312 C0.64662374 32.39812735 1.86420887 36.53049151 6 41.3125 C10.21397425 44.86804078 15.09068638 44.21847207 20.3125 44.25 C21.15490234 44.270625 21.99730469 44.29125 22.86523438 44.3125 C28.01222937 44.34469387 31.55029121 43.87519645 36 41 C41.13687917 35.44661711 41.23105484 30.88182247 41.3125 23.6875 C41.34150391 22.84509766 41.37050781 22.00269531 41.40039062 21.13476562 C41.45701907 15.56339774 40.71691968 12.4190045 37 8 C31.92707626 3.5419761 27.04418673 3.78855367 20.625 3.75 C19.77421875 3.729375 18.9234375 3.70875 18.046875 3.6875 C11.65567685 3.64767945 8.15322223 4.60753086 3.75 9.5 Z " fill="#F8FDFB" transform="translate(0,0)"/>
<path d="M0 0 C1.32 0 2.64 0 4 0 C7.625 0.3125 7.625 0.3125 11 1 C13 4 13 4 13.125 7.1875 C11.59525517 12.37163524 8.58277666 16.07482341 4 19 C-0.92420032 18.83282036 -3.30849659 16.41113164 -6.53515625 12.97265625 C-8.76646334 9.96782937 -9.20961434 7.70318675 -9 4 C-6.43936728 0.15905093 -4.48152708 -0.44815271 0 0 Z " fill="#EDFBF2" transform="translate(19,15)"/>
<path d="M0 0 C5.75 -0.125 5.75 -0.125 8 1 C8.72693904 2.97888961 9.39816251 4.97954558 10 7 C10.66 7 11.32 7 12 7 C12 18.22 12 29.44 12 41 C-1.86 41 -15.72 41 -30 41 C-30 30.77 -30 20.54 -30 10 C-29.34 9.67 -28.68 9.34 -28 9 C-28.01571045 9.57443848 -28.0314209 10.14887695 -28.04760742 10.74072266 C-28.11035513 13.36871309 -28.14911506 15.99654537 -28.1875 18.625 C-28.21263672 19.52863281 -28.23777344 20.43226562 -28.26367188 21.36328125 C-28.33169621 27.57617022 -27.58759113 31.87332739 -23.5 36.8125 C-19.55664366 39.93432377 -14.4449097 39.22127602 -9.6875 39.25 C-8.84509766 39.270625 -8.00269531 39.29125 -7.13476562 39.3125 C-1.98615284 39.34470399 1.54005604 38.86214472 6 36 C10.48732495 31.04846902 10.24085482 26.01615726 10.3125 19.6875 C10.34150391 18.84509766 10.37050781 18.00269531 10.40039062 17.13476562 C10.45675556 11.58932304 9.78041797 8.34849508 6 4 C2.89985071 2.11431306 2.89985071 2.11431306 0 1 C0 0.67 0 0.34 0 0 Z " fill="#C6F5DB" transform="translate(30,4)"/>
<path d="M0 0 C0.84755859 0.00322266 1.69511719 0.00644531 2.56835938 0.00976562 C3.44943359 0.01814453 4.33050781 0.02652344 5.23828125 0.03515625 C6.57729492 0.04192383 6.57729492 0.04192383 7.94335938 0.04882812 C10.14590112 0.06060642 12.34830724 0.07705461 14.55078125 0.09765625 C14.55078125 0.42765625 14.55078125 0.75765625 14.55078125 1.09765625 C13.37 1.14664062 12.18921875 1.195625 10.97265625 1.24609375 C9.41534188 1.32114504 7.85805134 1.39669186 6.30078125 1.47265625 C5.52347656 1.50359375 4.74617188 1.53453125 3.9453125 1.56640625 C-1.5638187 1.76483609 -1.5638187 1.76483609 -6.44921875 4.09765625 C-7.43921875 5.58265625 -7.43921875 5.58265625 -8.44921875 7.09765625 C-9.43921875 7.09765625 -10.42921875 7.09765625 -11.44921875 7.09765625 C-11.47821474 10.86847347 -11.49601604 14.63926208 -11.51171875 18.41015625 C-11.52009766 19.48201172 -11.52847656 20.55386719 -11.53710938 21.65820312 C-11.54033203 22.68623047 -11.54355469 23.71425781 -11.546875 24.7734375 C-11.55211182 25.72130127 -11.55734863 26.66916504 -11.56274414 27.64575195 C-11.55420729 30.23604306 -11.55420729 30.23604306 -10.44921875 33.09765625 C-11.43921875 33.59265625 -11.43921875 33.59265625 -12.44921875 34.09765625 C-14.79217851 29.45840924 -14.78243827 25.23643874 -14.76171875 20.16015625 C-14.77783203 19.37447266 -14.79394531 18.58878906 -14.81054688 17.77929688 C-14.81566613 11.66178362 -13.53977654 7.5148637 -9.44921875 2.78515625 C-6.39909932 0.21161798 -3.84354768 -0.02579562 0 0 Z " fill="#1D954D" transform="translate(15.44921875,3.90234375)"/>
<path d="M0 0 C5.75 -0.125 5.75 -0.125 8 1 C8.72693904 2.97888961 9.39816251 4.97954558 10 7 C10.66 7 11.32 7 12 7 C12 18.22 12 29.44 12 41 C10.35 41 8.7 41 7 41 C6.67 40.34 6.34 39.68 6 39 C6.66 38.01 7.32 37.02 8 36 C8.66 36 9.32 36 10 36 C10.11656783 31.79190116 10.18737611 27.58422004 10.25 23.375 C10.28351562 22.18519531 10.31703125 20.99539062 10.3515625 19.76953125 C10.52340622 11.04533052 10.52340622 11.04533052 6 4 C2.89985071 2.11431306 2.89985071 2.11431306 0 1 C0 0.67 0 0.34 0 0 Z " fill="#CEFAE6" transform="translate(30,4)"/>
<path d="M0 0 C6.10688347 5.95029671 6.10688347 5.95029671 6.203125 11.140625 C6.22444661 12.84368821 6.23981664 14.54683377 6.25 16.25 C6.270625 17.09691406 6.29125 17.94382812 6.3125 18.81640625 C6.34462977 23.98126696 5.88511948 27.53493414 3 32 C-1.21052632 36 -1.21052632 36 -5 36 C-5 35.34 -5 34.68 -5 34 C-3.20963542 33.0234375 -1.41927083 32.046875 0.37109375 31.0703125 C2.16618315 30.08589976 2.16618315 30.08589976 3 28 C3.26712387 24.38087633 3.23156096 20.75288016 3.25 17.125 C3.270625 16.11824219 3.29125 15.11148437 3.3125 14.07421875 C3.31765625 13.10355469 3.3228125 12.13289063 3.328125 11.1328125 C3.3374707 10.24480957 3.34681641 9.35680664 3.35644531 8.44189453 C2.93193745 5.53372492 1.83748813 4.24076523 0 2 C0 1.34 0 0.68 0 0 Z " fill="#1D8449" transform="translate(35,7)"/>
<path d="M0 0 C0.6875 1.8125 0.6875 1.8125 1 4 C-0.4375 5.625 -0.4375 5.625 -2 7 C-2 7.66 -2 8.32 -2 9 C-10.91 9 -19.82 9 -29 9 C-28.67 8.34 -28.34 7.68 -28 7 C-26.04707031 7.05220703 -26.04707031 7.05220703 -24.0546875 7.10546875 C-22.32813796 7.13361901 -20.60157439 7.16091784 -18.875 7.1875 C-18.0190625 7.21263672 -17.163125 7.23777344 -16.28125 7.26367188 C-11.07491532 7.32374497 -7.50126528 6.92582243 -3 4 C-1.14684743 1.95053601 -1.14684743 1.95053601 0 0 Z " fill="#C8ECD4" transform="translate(39,36)"/>
<path d="M0 0 C0.721875 0.804375 1.44375 1.60875 2.1875 2.4375 C5.02515689 5.02292072 6.27166147 5.68042813 10 6 C10 6.66 10 7.32 10 8 C6.7 8 3.4 8 0 8 C0 5.36 0 2.72 0 0 Z " fill="#F2F3F3" transform="translate(0,37)"/>
<path d="M0 0 C0.66 0 1.32 0 2 0 C2 2.97 2 5.94 2 9 C0.35 9 -1.3 9 -3 9 C-3.33 8.34 -3.66 7.68 -4 7 C-3.34 6.01 -2.68 5.02 -2 4 C-1.34 4 -0.68 4 0 4 C0 2.68 0 1.36 0 0 Z " fill="#F0F7F3" transform="translate(40,36)"/>
<path d="M0 0 C1.4540625 0.0309375 1.4540625 0.0309375 2.9375 0.0625 C1.96221263 1.39867352 0.98216681 2.7313751 0 4.0625 C-0.54527344 4.805 -1.09054688 5.5475 -1.65234375 6.3125 C-2.11769531 6.89 -2.58304687 7.4675 -3.0625 8.0625 C-3.3925 8.0625 -3.7225 8.0625 -4.0625 8.0625 C-4.10491723 5.72955225 -4.10342937 3.39547433 -4.0625 1.0625 C-3.0625 0.0625 -3.0625 0.0625 0 0 Z " fill="#E0FAE9" transform="translate(4.0625,5.9375)"/>
<path d="M0 0 C5.75 -0.125 5.75 -0.125 8 1 C9.1875 2.875 9.1875 2.875 10 5 C9.67 5.99 9.34 6.98 9 8 C8.1646875 6.824375 8.1646875 6.824375 7.3125 5.625 C4.92331435 2.91295142 3.39926587 2.03866457 0 1 C0 0.67 0 0.34 0 0 Z " fill="#CBF4DA" transform="translate(30,4)"/>
<path d="M0 0 C1.94268841 2.91403262 3.46395304 5.85808576 5 9 C3.02 8.34 1.04 7.68 -1 7 C-0.67 4.69 -0.34 2.38 0 0 Z " fill="#19924A" transform="translate(9,20)"/>
<path d="M0 0 C0 0.99 0 1.98 0 3 C-2.53184488 5.35723489 -3.47190093 6 -7 6 C-7 5.34 -7 4.68 -7 4 C-4.69 2.68 -2.38 1.36 0 0 Z " fill="#197F43" transform="translate(37,37)"/>
</svg>
